<svg aria-hidden="true" style="position:absolute;width:0;height:0;overflow:hidden" xmlns="http://www.w3.org/2000/svg">
  <defs>
    <symbol id="icon-engineering" viewBox="0 0 32 32">
      <path d="M12.009 19.987h-1.84a1.04 1.04 0 0 1-1.039-1.039v-1.025a.137.137 0 0 0-.106-.13 7.794 7.794 0 0 1-1.828-.759.126.126 0 0 0-.153.015l-.732.732c-.196.196-.457.304-.735.304s-.539-.108-.735-.304L3.54 16.48c-.196-.196-.304-.457-.304-.735s.108-.539.304-.735l.732-.732a.126.126 0 0 0 .015-.153 7.794 7.794 0 0 1-.759-1.828.138.138 0 0 0-.13-.106H2.373a1.04 1.04 0 0 1-1.039-1.039v-1.84a1.04 1.04 0 0 1 1.039-1.039h1.025a.137.137 0 0 0 .13-.106 7.794 7.794 0 0 1 .759-1.828.126.126 0 0 0-.015-.153l-.732-.732c-.196-.196-.304-.457-.304-.735s.108-.539.304-.735l1.301-1.301c.196-.196.457-.304.735-.304s.539.108.735.304l.732.732c.039.039.1.045.153.015a7.794 7.794 0 0 1 1.828-.759.136.136 0 0 0 .106-.13V1.516A1.04 1.04 0 0 1 10.169.477h1.84a1.04 1.04 0 0 1 1.039 1.039v1.025c0 .061.043.113.106.13.638.174 1.253.43 1.828.76.052.03.114.024.153-.015l.732-.732a1.04 1.04 0 0 1 1.47 0l.138.138c.43.429-.22 1.08-.65.65-.085-.073-.193-.252-.308-.138l-.732.732a1.047 1.047 0 0 1-1.26.162 6.866 6.866 0 0 0-1.612-.67 1.06 1.06 0 0 1-.784-1.017V1.516a.12.12 0 0 0-.12-.12h-1.84a.12.12 0 0 0-.12.12v1.025c0 .473-.322.891-.784 1.017a6.874 6.874 0 0 0-1.613.67c-.41.236-.929.169-1.26-.162l-.732-.732c-.029-.029-.062-.035-.085-.035s-.056.006-.085.035L4.189 4.635c-.029.029-.035.062-.035.085s.006.056.035.085l.732.732c.331.331.398.849.162 1.26a6.874 6.874 0 0 0-.67 1.613 1.06 1.06 0 0 1-1.017.784H2.371a.12.12 0 0 0-.12.12v1.84c0 .066.054.12.12.12h1.025c.473 0 .891.322 1.017.784.153.563.379 1.105.67 1.613.236.411.169.929-.162 1.26l-.732.732c-.029.029-.035.062-.035.085s.006.056.035.085l1.301 1.301a.12.12 0 0 0 .17 0l.732-.732a1.047 1.047 0 0 1 1.26-.162c.507.291 1.05.517 1.612.67.461.126.784.544.784 1.017v1.025c0 .066.054.12.12.12h1.84a.12.12 0 0 0 .12-.12v-1.025c0-.473.322-.892.784-1.017.587-.16.828.727.242.887a.137.137 0 0 0-.106.131v1.025a1.04 1.04 0 0 1-1.039 1.039z"/>
      <path d="M6.758 10.231c0-3.039 3.056-5.122 5.871-4.049.568.217.241 1.076-.327.859-2.222-.847-4.625.803-4.625 3.19a3.416 3.416 0 0 0 3.616 3.406c.606-.037.662.882.054.918a4.336 4.336 0 0 1-4.589-4.324z"/>
      <path d="m26.764 20.882-4.656-.905v-1.151c1.308-.892 2.016-2.155 2.17-3.574a1.322 1.322 0 0 0 1.215-1.316v-.944c1.107-.481.957-2.096-.214-2.368v-.365a5.934 5.934 0 0 0-5.934-5.934h-.498a5.934 5.934 0 0 0-5.934 5.934v.365c-1.17.272-1.321 1.887-.214 2.368v.944c0 .692.536 1.262 1.214 1.316.135 1.238.715 2.371 1.63 3.159.175.151.355.289.54.415v1.151l-4.656.905c-2.457.478-4.372 1.863-4.372 4.418v4.674c0 1.034.838 1.873 1.873 1.873h20.335a1.873 1.873 0 0 0 1.873-1.873V25.3c0-2.547-1.903-3.938-4.372-4.418zm-3.825.192c-.334.485-.844 1.226-1.395 2.023-.224.325-.627.367-.785.272l-.726-.435c.708-.418 1.688-1.136 1.985-2.039l.921.179zm-3.844 1.325c-.698-.351-2.089-1.219-2.093-2.04v-1.026a5.274 5.274 0 0 0 4.186 0v1.022c0 .822-1.395 1.692-2.093 2.044zm-5.263-12.141a5.017 5.017 0 0 1 2.587-4.387v.576c0 .607.919.608.919 0v-.972c.412-.13.848-.209 1.298-.227V7.52c0 .607.919.608.919 0V5.248c.451.019.886.097 1.298.227v.972c0 .607.919.608.919 0v-.576a5.017 5.017 0 0 1 2.587 4.387v.332H13.831v-.332zm-.636 1.252h11.798c.44 0 .44.666 0 .666H13.196c-.441 0-.44-.666 0-.666zm1.607 3.276a.46.46 0 0 0-.46-.45c-.077-.019-.726.119-.726-.4v-.841h10.955v.841c0 .519-.667.386-.726.4a.46.46 0 0 0-.46.45c-.025 1.149-.513 2.216-1.339 2.928-1.755 1.511-4.15 1.512-5.905 0-.827-.712-1.315-1.779-1.34-2.928zm1.369 6.109c.298.903 1.277 1.621 1.985 2.039-.728.39-.676.506-1.007.467a.724.724 0 0 1-.508-.31c-.55-.796-1.058-1.534-1.391-2.018l.921-.179zM10.87 30.928H8.928a.954.954 0 0 1-.954-.954V25.3c0-1.377.626-2.329 1.998-2.987.056.245.898 2.53.898 5.724v2.891zm7.766 0h-6.847v-2.891c0-3.46-.874-5.688-.96-6.066.537-.178.138-.041 3.439-.705.949 1.378 2.719 3.95 3.762 5.434a3.31 3.31 0 0 1 .606 1.913v2.315zm.459-4.237a4.32 4.32 0 0 0-.313-.52c-.353-.501-.811-1.159-1.288-1.848a1.35 1.35 0 0 0 .41-.164l1.191-.714 1.192.714c.13.078.269.132.41.164-.478.689-.936 1.347-1.288 1.848a4.327 4.327 0 0 0-.314.52zm11.122 3.283a.954.954 0 0 1-.954.954h-1.942v-1.734c0-.608-.919-.608-.919 0v1.734h-6.847v-2.315a3.3 3.3 0 0 1 .606-1.913 856.86 856.86 0 0 0 3.763-5.434c3.299.664 2.901.527 3.438.705-.067.283-.84 2.384-.947 5.366-.022.609.897.639.918.033.103-2.885.811-4.742.886-5.057 1.372.658 1.998 1.61 1.998 2.987v4.674z"/>
    </symbol>
    <symbol id="icon-order" viewBox="0 0 32 32">
      <path d="M24.949 4.263h-2.838v-1.27c0-.411-.448-.598-.859-.598h-2.203C18.526.901 17.219.154 15.725.154a3.398 3.398 0 0 0-3.324 2.241h-2.166c-.411 0-.822.187-.822.598v1.27H6.575a3.175 3.175 0 0 0-3.137 3.025v21.399c0 1.643 1.494 2.838 3.137 2.838h18.374c1.643 0 3.137-1.195 3.137-2.838V7.288a3.175 3.175 0 0 0-3.137-3.025zM10.907 3.89h2.054a.822.822 0 0 0 .71-.672 2.166 2.166 0 0 1 2.054-1.681 2.13 2.13 0 0 1 2.017 1.681.821.821 0 0 0 .747.672h2.129v2.988h-9.71V3.89zm15.685 24.797c0 .822-.822 1.344-1.643 1.344H6.575c-.822 0-1.643-.523-1.643-1.344V7.288a1.68 1.68 0 0 1 1.643-1.531h2.838v1.905a.786.786 0 0 0 .822.71h11.017a.822.822 0 0 0 .859-.71V5.757h2.838a1.68 1.68 0 0 1 1.643 1.531v21.399z"/>
      <path d="M12.887 16.848a.747.747 0 0 0-1.046-.037l-2.39 2.278-1.008-1.046a.747.747 0 0 0-1.046-.037.785.785 0 0 0 0 1.083l1.531 1.569c.133.148.324.23.523.224a.747.747 0 0 0 .523-.224l2.913-2.764a.71.71 0 0 0 0-1.046zM23.605 18.454h-8.589a.746.746 0 1 0 0 1.494h8.589a.746.746 0 1 0 0-1.494zM12.887 10.873a.747.747 0 0 0-1.046-.037l-2.39 2.278-1.008-1.046a.747.747 0 0 0-1.046-.037.785.785 0 0 0 0 1.083l1.531 1.569c.133.148.324.23.523.224a.747.747 0 0 0 .523-.224l2.913-2.764a.71.71 0 0 0 0-1.046zM23.605 12.479h-8.589a.746.746 0 1 0 0 1.494h8.589a.746.746 0 1 0 0-1.494zM12.887 22.824a.747.747 0 0 0-1.046-.037l-2.39 2.278-1.008-1.046a.747.747 0 0 0-1.046-.037.785.785 0 0 0 0 1.083l1.531 1.569c.133.148.324.23.523.224a.747.747 0 0 0 .523-.224l2.913-2.764a.71.71 0 0 0 0-1.046zM23.605 24.43h-8.589a.746.746 0 1 0 0 1.494h8.589a.746.746 0 1 0 0-1.494z"/>
    </symbol>
    <symbol id="icon-contract" viewBox="0 0 32 32">
      <path d="M20.84 9.029H5.816a.462.462 0 0 0 0 .923H20.84a.462.462 0 0 0 0-.924zM5.816 6.751h7.512a.461.461 0 1 0-.001-.924H5.815a.462.462 0 0 0 0 .924zM20.84 11.865H5.816a.462.462 0 0 0 0 .923H20.84a.462.462 0 0 0 0-.924z"/>
      <path d="M9.239 28.751H4.431A1.433 1.433 0 0 1 3 27.32V2.939c0-.789.642-1.431 1.431-1.431h13.851c.045 0 .089.004.132.01v2.878a2.357 2.357 0 0 0 2.354 2.354h2.878c.006.044.01.088.01.132v7.859a.462.462 0 0 0 .924 0V6.882c0-.506-.197-.982-.555-1.34l-4.403-4.403a1.883 1.883 0 0 0-1.34-.555H4.431a2.357 2.357 0 0 0-2.354 2.354v24.381a2.357 2.357 0 0 0 2.354 2.354h4.808a.462.462 0 0 0 0-.923zM23.004 5.828h-2.236a1.433 1.433 0 0 1-1.431-1.431V2.161l3.667 3.667z"/>
      <path d="m29.786 23.179-3.91-6.6a1.012 1.012 0 0 0-1.387-.355l-.951.564a1.808 1.808 0 0 0-.797 2.107c-.32.116-.672.114-.995-.011-.751-.236-1.322-.712-2.265-.473-1.601.408-1.552.387-1.697.437-.937-.534-1.501-.693-2.496-.308l-.887.343a1.418 1.418 0 0 1-1.243-.104l-.242-.143a1.804 1.804 0 0 0-.861-1.849l-.951-.563a1.014 1.014 0 0 0-1.387.355L5.806 23.18a1.012 1.012 0 0 0 .355 1.387l.951.563c.288.171.604.252.917.252.348 0 .692-.101.986-.291l.198.117-.418.583a1.547 1.547 0 0 0 1.497 2.43c.066.387.278.75.622.996.323.232.724.337 1.143.271a1.546 1.546 0 0 0 2.135 1.16 1.55 1.55 0 0 0 2.629.435l1.112.659a1.546 1.546 0 0 0 2.326-1.147l.003.002a1.55 1.55 0 0 0 2.333-1.218 1.55 1.55 0 0 0 1.917-1.338 1.55 1.55 0 0 0 2.064-1.825 1.55 1.55 0 0 0-.315-.613l.613-.358c.519.213 1.11.179 1.606-.115l.951-.563c.481-.285.64-.905.355-1.387zM7.583 24.335l-.951-.564a.09.09 0 0 1-.031-.122l3.911-6.601a.09.09 0 0 1 .122-.031l.951.563a.88.88 0 0 1 .309 1.207l-3.103 5.238a.882.882 0 0 1-1.207.309zm2.105 2.864a.624.624 0 0 1-.143-.871l.615-.857a.625.625 0 0 1 1.014.728l-.615.857a.625.625 0 0 1-.872.143zm1.764 1.267a.625.625 0 0 1-.143-.872l.615-.857.679-.946a.623.623 0 0 1 1.123.263.62.62 0 0 1-.109.465l-1.294 1.803a.624.624 0 0 1-.871.143zm1.764 1.266a.624.624 0 0 1-.143-.871l1.294-1.803a.624.624 0 0 1 1.014.728l-.575.801-.719 1.002a.624.624 0 0 1-.871.143zm2.053.865a.624.624 0 0 1-.143-.871l.431-.6a.624.624 0 0 1 1.014.728l-.43.599a.624.624 0 0 1-.871.143zm10.345-3.68a.625.625 0 0 1-.856.219l-4.085-2.42a.46.46 0 1 0-.47.794l3.088 1.83a.624.624 0 1 1-.637 1.075l-3.09-1.831a.46.46 0 1 0-.47.794l2.276 1.348a.625.625 0 1 1-.637 1.075l-1.221-.723-.891-.528a.46.46 0 1 0-.47.794l.891.528a.624.624 0 1 1-.637 1.075l-1.04-.616a1.55 1.55 0 0 0-1.04-2.366 1.55 1.55 0 0 0-.547-1.8 1.543 1.543 0 0 0-1.142-.271 1.55 1.55 0 0 0-2.625-.827 1.55 1.55 0 0 0-2.152-.552l-.211-.125 2.903-4.899.138.081c.61.362 1.355.437 2.045.17l.887-.343c.508-.196.788-.209 1.29.028a2.064 2.064 0 0 0-.524 1.376v2.046c0 .544.442.986.985.986h.001c.545 0 1.057-.212 1.442-.597.225-.224.39-.492.49-.784l6.09 3.606a.621.621 0 0 1 .219.856zm3.347-3.146-.951.564a.881.881 0 0 1-1.207-.309l-1.454-2.455a.461.461 0 0 0-.794.47l1.454 2.455a1.7 1.7 0 0 0 .088.133l-.404.236a2.33 2.33 0 0 0-.236.16l-6.27-3.713a.462.462 0 0 0-.697.397c-.005.028.048.502-.327.877a1.11 1.11 0 0 1-.79.327h-.001a.063.063 0 0 1-.063-.063v-2.046c0-.535.368-.986.865-1.111l1.533-.388c.556-.141.871.156 1.703.438.578.224 1.207.21 1.765-.028l.279.47a.461.461 0 0 0 .794-.47l-.549-.926a.88.88 0 0 1 .309-1.207l.951-.563a.089.089 0 0 1 .122.031l3.91 6.601a.09.09 0 0 1-.031.122z"/>
    </symbol>
    <symbol id="icon-warranty" viewBox="0 0 32 32">
      <path d="m26.838 9.884-1.473-1.787a1.58 1.58 0 0 1-.355-.858l-.222-2.305a2.522 2.522 0 0 0-2.266-2.266l-2.305-.222a1.58 1.58 0 0 1-.858-.355L17.572.618a2.525 2.525 0 0 0-3.205 0L12.58 2.091a1.58 1.58 0 0 1-.858.355l-2.305.222a2.522 2.522 0 0 0-2.266 2.266l-.222 2.305a1.58 1.58 0 0 1-.355.858L5.101 9.884a2.525 2.525 0 0 0 0 3.205l1.473 1.787c.202.245.325.542.355.858l.222 2.305a2.522 2.522 0 0 0 2.266 2.266l1.409.136-3.348 8c-.091.218-.05.463.107.64s.395.246.621.182l2.905-.82a.027.027 0 0 1 .031.012l1.455 2.645c.108.197.31.316.533.316l.032-.001a.608.608 0 0 0 .532-.373l3.535-8.447c.12-.069.235-.148.345-.238l1.787-1.473c.226-.187.497-.305.786-.346l3.201 7.649-2.265-.639a.953.953 0 0 0-1.098.459l-1.134 2.063-1.503-3.591a.466.466 0 0 0-.858.359l1.76 4.207a.605.605 0 0 0 .531.371l.032.001a.604.604 0 0 0 .533-.316l1.454-2.644c.006-.011.018-.016.031-.013l2.904.82c.227.064.465-.005.622-.182s.198-.421.107-.64l-3.348-8 1.409-.136a2.522 2.522 0 0 0 2.266-2.266l.222-2.305a1.58 1.58 0 0 1 .355-.858l1.473-1.787a2.525 2.525 0 0 0 0-3.205zM13.09 30.069l-1.134-2.063a.954.954 0 0 0-1.098-.459l-2.265.639 3.201-7.649c.289.041.56.159.786.346l1.787 1.473a2.512 2.512 0 0 0 1.712.571l-2.988 7.142zm13.03-17.572-1.473 1.787a2.504 2.504 0 0 0-.564 1.361l-.222 2.305a1.592 1.592 0 0 1-1.429 1.429l-2.025.195-.024.002-.256.025a2.504 2.504 0 0 0-1.361.564l-1.787 1.473a1.59 1.59 0 0 1-2.021 0l-1.787-1.473a2.512 2.512 0 0 0-1.361-.564l-.258-.025-.021-.002-2.026-.195a1.592 1.592 0 0 1-1.429-1.429l-.222-2.305a2.504 2.504 0 0 0-.564-1.361l-1.473-1.787a1.59 1.59 0 0 1 0-2.021L7.29 8.689c.321-.389.516-.859.564-1.361l.222-2.305a1.592 1.592 0 0 1 1.429-1.429l2.305-.222a2.504 2.504 0 0 0 1.361-.564l1.787-1.473a1.59 1.59 0 0 1 2.022 0l1.787 1.473c.389.321.859.516 1.361.564l2.305.222a1.592 1.592 0 0 1 1.429 1.429l.222 2.305c.048.502.243.972.564 1.361l1.473 1.787a1.59 1.59 0 0 1 0 2.021z"/>
      <path d="M15.969 4.219c-.311 0-.623.02-.93.059a.465.465 0 0 0 .118.923 6.344 6.344 0 0 1 7.149 6.286 6.344 6.344 0 0 1-6.337 6.337 6.344 6.344 0 0 1-6.337-6.337 6.35 6.35 0 0 1 3.744-5.784c.234-.105.339-.381.234-.615s-.381-.339-.615-.234a7.282 7.282 0 0 0-4.293 6.633c0 4.007 3.26 7.267 7.267 7.267s7.268-3.26 7.268-7.267c0-4.007-3.26-7.267-7.268-7.267z"/>
      <path d="M11.348 10.947a1.424 1.424 0 0 0 0 2.012l2.032 2.032c.269.269.626.416 1.006.416s.737-.148 1.006-.416l4.435-4.436a1.424 1.424 0 0 0-2.012-2.012l-3.429 3.43-1.026-1.026a1.424 1.424 0 0 0-2.012 0zm3.038 2.149a.466.466 0 0 0 .329-.136l3.759-3.759a.492.492 0 0 1 .696.696l-4.435 4.436a.49.49 0 0 1-.696 0l-2.032-2.032a.492.492 0 0 1 .696-.696l1.355 1.355a.466.466 0 0 0 .329.136z"/>
    </symbol>
    <symbol id="icon-logistic" viewBox="0 0 32 32">
      <path d="M21.769 24.435a1.38 1.38 0 1 0 .002 2.756 1.38 1.38 0 0 0-.002-2.756zm0 1.838a.46.46 0 1 1 .001-.921.46.46 0 0 1-.001.921zM7.461 20.759c-1.774 0-3.217 1.443-3.217 3.217s1.443 3.217 3.217 3.217 3.217-1.443 3.217-3.217-1.443-3.217-3.217-3.217zm0 5.514c-1.267 0-2.298-1.031-2.298-2.298s1.031-2.298 2.298-2.298 2.298 1.031 2.298 2.298a2.3 2.3 0 0 1-2.298 2.298z"/>
      <path d="M31.021 19.38V9.27h-5.515V4.674h-2.757v13.787h-1.566L16.465 4.009c-.222-.68-.89-1.173-1.589-1.173H3.387a1.38 1.38 0 0 0-1.379 1.379v2.298h.919V4.215a.46.46 0 0 1 .46-.46h11.489c.297 0 .619.242.716.54l4.734 14.5-.729.729-4.848-14.85H3.847v11.489h-.919V7.431h-.919v8.732h-.061a1.38 1.38 0 0 0-1.379 1.379v8.732h2.393c.838 1.635 2.54 2.757 4.5 2.757s3.662-1.122 4.5-2.757h6.623a3.221 3.221 0 0 0 3.184 2.757 3.22 3.22 0 0 0 3.217-3.217 3.213 3.213 0 0 0-1.317-2.594v-1.082h3.217v-.919h-3.217V20.3h7.353v.919h-3.217v.919h4.136v-2.757h-.919zm-13-1.722.847 2.595-.506.506h-2.957l2.616-3.101zM4.765 5.593h9.316l3.603 11.037-1.075 1.274-.703-.593.593-.703-.703-.593-1.778 2.108.703.593.593-.703.703.593-1.618 1.918-4.043-4.362H4.765V5.592zm2.696 22.518c-2.281 0-4.136-1.855-4.136-4.136s1.855-4.136 4.136-4.136 4.136 1.855 4.136 4.136a4.14 4.14 0 0 1-4.136 4.136zm16.606-2.297c0 1.267-1.031 2.298-2.298 2.298s-2.298-1.031-2.298-2.298c0-1.267 1.031-2.298 2.298-2.298s2.298 1.031 2.298 2.298zm-2.298-3.217a3.222 3.222 0 0 0-3.184 2.757h-6.262c.125-.439.193-.901.193-1.379 0-2.787-2.268-5.055-5.055-5.055s-5.055 2.268-5.055 5.055c0 .478.068.94.193 1.379H1.487v-7.812a.46.46 0 0 1 .46-.46h8.009l4.26 4.596h4.527l2.298-2.298h1.709v3.37a3.21 3.21 0 0 0-.98-.153zm5.576-12.408h.919v1.379h-.919v-1.379zm-.919 0v2.298h2.757v-2.298h.919v4.136h-4.596v-4.136h.919zm.919 5.055h.919v1.379h-.919v-1.379zm-2.757 4.136h-.919V5.593h.919V19.38zm.919-4.136h.919v2.298h2.757v-2.298h.919v4.136h-4.596v-4.136z"/>
      <path d="M10.646 6.512h.919v.919h-.919v-.919zM12.485 6.512h.919v.919h-.919v-.919z"/>
    </symbol>
    <symbol id="icon-supply" viewBox="0 0 32 32">
      <path d="m6.929 29.076 2.044 2.044a.49.49 0 0 0 .694 0l1.225-1.225a.491.491 0 0 0 0-.694l-2.044-2.044a.504.504 0 0 0-.694 0l-.266.266-.764-.764a3.676 3.676 0 1 0-.692.694l.763.764-.267.267a.491.491 0 0 0 0 .694zm1.573-.883 1.351 1.354-.533.533-1.351-1.352.533-.536zm-2.391-1.857a2.697 2.697 0 0 1-2.93.582 2.69 2.69 0 0 1 0-4.967 2.693 2.693 0 0 1 2.93.582 2.685 2.685 0 0 1 .797 1.904 2.67 2.67 0 0 1-.797 1.904v-.002zM28.967 24.4h-.591a2.209 2.209 0 0 0-.092-3.527 2.208 2.208 0 0 0-3.361 1.073 2.202 2.202 0 0 0 .713 2.454h-.591a1.961 1.961 0 0 0-1.96 1.96v4.412a.491.491 0 0 0 .491.491h6.863a.491.491 0 0 0 .491-.491V26.36a1.961 1.961 0 0 0-1.96-1.96zm-1.961-2.941a1.226 1.226 0 1 1-.003 2.452 1.226 1.226 0 0 1 .004-2.452zm2.941 8.824h-5.882v-3.922a.98.98 0 0 1 .98-.98h3.922a.98.98 0 0 1 .98.98v3.922zM6.556 7.221a12.746 12.746 0 0 0-3.078 12.416l.94-.276A11.773 11.773 0 0 1 7.261 7.904l-.704-.682zM21.85 27.257l-.472-.859a11.806 11.806 0 0 1-8.939.984l-.276.941a12.786 12.786 0 0 0 9.688-1.065zM28.089 19.128c.249-.996.374-2.019.373-3.046a12.662 12.662 0 0 0-3.553-8.824l-.707.68a11.686 11.686 0 0 1 3.28 8.144c.001.946-.114 1.889-.343 2.807l.951.239zM12.932 21.406l.238-.135c.284.207.592.379.918.512v.233a.925.925 0 0 0 .934.914h1.422a.928.928 0 0 0 .934-.914v-.233a3.49 3.49 0 0 0 .896-.52l.26.143a.948.948 0 0 0 1.261-.331l.711-1.176a.891.891 0 0 0 .098-.697.92.92 0 0 0-.444-.564l-.218-.12a3.827 3.827 0 0 0 0-.98l.218-.121a.91.91 0 0 0 .346-1.262l-.71-1.176a.946.946 0 0 0-1.262-.331l-.238.135a4.344 4.344 0 0 0-.918-.512v-.233a.926.926 0 0 0-.936-.913H15.02a.923.923 0 0 0-.931.914v.233a3.49 3.49 0 0 0-.896.52l-.26-.143a.947.947 0 0 0-1.261.33l-.711 1.176a.891.891 0 0 0-.098.697.92.92 0 0 0 .444.564l.218.121a3.827 3.827 0 0 0 0 .98l-.218.121a.91.91 0 0 0-.346 1.262l.71 1.176a.953.953 0 0 0 1.261.329zm-.46-3.378c0-.139.01-.278.03-.415a.9.9 0 0 0-.467-.911l-.196-.107.647-1.071.231.127a.97.97 0 0 0 1.03-.075 3.31 3.31 0 0 1 .722-.401.925.925 0 0 0 .597-.852v-.217h1.327v.217a.923.923 0 0 0 .597.852c.258.103.501.238.725.402a.962.962 0 0 0 1.03.075l.231-.127.647 1.071-.196.107a.905.905 0 0 0-.467.912c.021.137.032.275.033.414 0 .139-.01.278-.03.415a.9.9 0 0 0 .467.911l.196.107-.647 1.071-.231-.127a.97.97 0 0 0-1.03.075 3.31 3.31 0 0 1-.722.401.922.922 0 0 0-.597.852v.217h-1.33v-.217a.918.918 0 0 0-.597-.852 3.31 3.31 0 0 1-.722-.401.962.962 0 0 0-1.03-.075l-.231.127-.647-1.071.196-.107a.9.9 0 0 0 .467-.912 2.865 2.865 0 0 1-.033-.414z"/>
      <path d="M15.732 19.989a1.961 1.961 0 1 0 .002-3.92 1.961 1.961 0 0 0-.003 3.919zm0-2.942c.194 0 .383.058.545.165s.287.261.361.44a.98.98 0 1 1-.905-.606zM9.849 2.832H7.398v.98h2.451v-.98zM10.83 4.793H8.379v.98h2.451v-.98z"/>
      <path d="M20.526 2.525a.487.487 0 0 0-.382-.184h-2.451v-.98a.491.491 0 0 0-.491-.491H9.359a.491.491 0 0 0-.491.491v.98h.98v-.49h6.863v7.353H13.68a1.46 1.46 0 0 0-1.381-.981 1.463 1.463 0 0 0-1.381.981H9.847V6.263h-.98v3.431a.491.491 0 0 0 .491.491h1.561a1.46 1.46 0 0 0 1.381.981 1.461 1.461 0 0 0 1.381-.981h4.592a1.46 1.46 0 0 0 1.381.981 1.463 1.463 0 0 0 1.381-.981h1.071a.491.491 0 0 0 .491-.491V5.282a.493.493 0 0 0-.107-.306l-1.961-2.451zm-8.226 7.66a.487.487 0 0 1-.453-.303.49.49 0 1 1 .452.304zm6.863-6.863h.745l1.176 1.471h-1.922V3.322zm.49 6.863a.487.487 0 0 1-.453-.303.49.49 0 1 1 .452.304zm1.961-.981h-.58a1.46 1.46 0 0 0-1.381-.981 1.463 1.463 0 0 0-1.381.981h-.58V3.322h.49v1.961a.491.491 0 0 0 .491.491h2.941v3.431z"/>
    </symbol>
    <symbol id="icon-equipment" viewBox="0 0 32 32">
      <path d="M28.83 9.969a14.082 14.082 0 0 1 1.4 6.16 14.203 14.203 0 0 1-16.315 14.058 14.208 14.208 0 0 1-7.285-3.392l1.065-1.063a.484.484 0 0 0 .123-.488.488.488 0 0 0-.372-.339l-3.465-.695a.492.492 0 0 0-.578.575l.69 3.465a.487.487 0 0 0 .599.38.485.485 0 0 0 .227-.128l1.016-1.014a15.185 15.185 0 0 0 25.276-11.359 15.058 15.058 0 0 0-1.497-6.585l-.883.425zM4.875 27.161l-.367-1.846 1.846.37-1.479 1.476zM3.198 22.288a14.082 14.082 0 0 1-1.4-6.16 14.216 14.216 0 0 1 8.358-12.954 14.217 14.217 0 0 1 15.247 2.283l-1.069 1.067a.484.484 0 0 0-.123.488.487.487 0 0 0 .373.339l3.465.695a.492.492 0 0 0 .578-.576l-.69-3.465a.484.484 0 0 0-.339-.373.492.492 0 0 0-.488.121l-1.012 1.009A15.197 15.197 0 0 0 9.781 2.266a15.193 15.193 0 0 0-8.963 13.86 15.058 15.058 0 0 0 1.497 6.585l.883-.426zM27.153 5.096l.367 1.846-1.846-.372 1.479-1.474z"/>
      <path d="M22.52 25.039h.073a2.332 2.332 0 0 0 2.184-1.51 2.34 2.34 0 0 0-.635-2.576l-4.427-3.926a3.907 3.907 0 0 0-1.139-3.881 3.92 3.92 0 0 0-3.965-.802.485.485 0 0 0-.313.354.492.492 0 0 0 .131.454l1.15 1.15-1.386 1.386-1.149-1.149a.49.49 0 0 0-.808.183 3.917 3.917 0 0 0 2.584 5.075c.684.201 1.41.211 2.099.029l3.926 4.426a2.313 2.313 0 0 0 1.678.787zm-5.447-6.263a.509.509 0 0 0-.164.028 2.923 2.923 0 0 1-2.745-.411 2.94 2.94 0 0 1-1.172-2.517l.852.853a.504.504 0 0 0 .694 0l2.08-2.08a.49.49 0 0 0 0-.694l-.853-.852a2.935 2.935 0 0 1 3.068 2.493c.072.479.023.969-.14 1.424a.49.49 0 0 0 .137.531l4.663 4.135c.138.123.25.273.329.44s.122.349.127.534a1.353 1.353 0 0 1-.397 1 1.33 1.33 0 0 1-1 .397 1.33 1.33 0 0 1-.974-.456l-4.135-4.662a.49.49 0 0 0-.367-.165z"/>
      <path d="M22.938 18.579a7.387 7.387 0 0 0-3.007-8.719 7.384 7.384 0 0 0-11.284 5.424 7.384 7.384 0 0 0 9.817 7.769l-.709-.8a6.393 6.393 0 0 1-8.107-6.954 6.397 6.397 0 0 1 9.59-4.703 6.397 6.397 0 0 1 2.901 7.273l.799.709zM22.855 22.97a.49.49 0 1 0-.692-.692.49.49 0 0 0 .692.692z"/>
      <path d="M25.358 18.579a1.44 1.44 0 0 0 1.44-1.441v-2.02a1.44 1.44 0 0 0-1.44-1.441.48.48 0 0 1-.458-.323 9.307 9.307 0 0 0-.642-1.545.476.476 0 0 1 .094-.554l.01-.01a1.446 1.446 0 0 0-.008-2.029l-1.428-1.428a1.475 1.475 0 0 0-2.04 0 .477.477 0 0 1-.553.094 9.281 9.281 0 0 0-1.546-.642c-.095-.032-.177-.094-.234-.176s-.088-.18-.087-.28a1.444 1.444 0 0 0-1.44-1.442h-2.021a1.449 1.449 0 0 0-1.335.904 1.455 1.455 0 0 0-.105.557.445.445 0 0 1-.301.431 9.308 9.308 0 0 0-1.566.648.481.481 0 0 1-.556-.098 1.475 1.475 0 0 0-2.038 0l-1.428 1.43a1.446 1.446 0 0 0-.009 2.029l.01.011a.477.477 0 0 1 .095.553 9.371 9.371 0 0 0-.643 1.546c-.032.095-.094.178-.176.235s-.181.088-.281.087a1.445 1.445 0 0 0-1.44 1.441v2.02a1.44 1.44 0 0 0 1.44 1.441.477.477 0 0 1 .458.323c.167.533.382 1.05.642 1.545a.475.475 0 0 1-.094.554l-.01.01a1.447 1.447 0 0 0 .008 2.03l1.428 1.428a1.475 1.475 0 0 0 2.04 0 .48.48 0 0 1 .553-.094c.495.26 1.012.475 1.546.642a.473.473 0 0 1 .321.456 1.44 1.44 0 0 0 1.44 1.441h2.021a1.44 1.44 0 0 0 1.44-1.441.48.48 0 0 1 .322-.458 9.308 9.308 0 0 0 1.054-.411l-.68-.767c-.219.09-.441.172-.665.242a1.445 1.445 0 0 0-1.01 1.393.464.464 0 0 1-.46.461h-2.021a.46.46 0 0 1-.46-.461 1.451 1.451 0 0 0-1.01-1.393 8.21 8.21 0 0 1-1.381-.574 1.42 1.42 0 0 0-.667-.165 1.466 1.466 0 0 0-1.037.435.472.472 0 0 1-.652 0L8.37 22.345a.464.464 0 0 1 0-.652l.01-.01a1.451 1.451 0 0 0 .26-1.695 8.38 8.38 0 0 1-.574-1.381 1.445 1.445 0 0 0-1.393-1.01.46.46 0 0 1-.46-.46v-2.02a.464.464 0 0 1 .46-.461 1.445 1.445 0 0 0 1.393-1.01c.149-.477.342-.94.575-1.382a1.45 1.45 0 0 0-.259-1.693l-.011-.011a.464.464 0 0 1 0-.652L9.799 8.48a.468.468 0 0 1 .652 0 1.45 1.45 0 0 0 1.704.268c.448-.236.917-.43 1.4-.579a1.42 1.42 0 0 0 .991-1.386.464.464 0 0 1 .46-.461h2.021a.46.46 0 0 1 .46.461 1.445 1.445 0 0 0 1.01 1.393 8.29 8.29 0 0 1 1.381.573 1.444 1.444 0 0 0 1.705-.271.472.472 0 0 1 .652 0l1.428 1.428a.464.464 0 0 1 0 .652l-.01.01a1.451 1.451 0 0 0-.26 1.695c.233.442.424.904.574 1.381a1.445 1.445 0 0 0 1.393 1.01.46.46 0 0 1 .46.461v2.02a.452.452 0 0 1-.143.331.482.482 0 0 1-.338.13 1.44 1.44 0 0 0-1.367.991 8.442 8.442 0 0 1-.245.684l.764.677c.162-.349.301-.707.418-1.073a.453.453 0 0 1 .451-.299z"/>
    </symbol>
    <symbol id="icon-product" viewBox="0 0 32 32">
      <path d="M7.032 3.512c-1.909 0-3.463 1.55-3.463 3.455a3.463 3.463 0 0 0 6.926 0 3.463 3.463 0 0 0-3.463-3.455zm0 5.99c-1.402 0-2.543-1.137-2.543-2.536S5.63 4.43 7.032 4.43c1.402 0 2.543 1.138 2.543 2.536S8.434 9.502 7.032 9.502z"/>
      <path d="M31.49 22.606c-.273-.639-.881-1.151-1.753-1.232l-.024-5.531a.46.46 0 0 0-.459-.458h-.002a.46.46 0 0 0-.458.462l.024 5.592a4.133 4.133 0 0 0-.614.188l-7.697 3.004a4.365 4.365 0 0 0-.19-1.66c-.309-1.001-.936-1.852-1.763-2.393l-1.562-1.024c-1.2-.786-2.484-1.35-3.715-1.631a7.813 7.813 0 0 0-2.521-.178v-5.176a.946.946 0 0 0 .457-.253l1.179-1.176c.181-.181.281-.422.281-.678s-.1-.497-.282-.679l-.162-.16a5.81 5.81 0 0 0 .36-.866h.23a.96.96 0 0 0 .96-.958v-.372h3.703v4.401c0 .477.388.865.866.865h2.878a.867.867 0 0 0 .866-.865V7.427h5.76c.533 0 .966.432.966.963v5.242a.46.46 0 0 0 .92 0V8.39a1.886 1.886 0 0 0-1.886-1.882H13.779v-.372a.96.96 0 0 0-.96-.958h-.23a5.844 5.844 0 0 0-.36-.865l.163-.162a.952.952 0 0 0 0-1.354l-1.181-1.18a.966.966 0 0 0-1.355.002l-.162.163a5.883 5.883 0 0 0-.87-.36v-.228a.96.96 0 0 0-.96-.957H6.197a.959.959 0 0 0-.958.957v.228a5.825 5.825 0 0 0-.87.361l-.166-.165a.966.966 0 0 0-1.353.001L1.669 2.797a.959.959 0 0 0 0 1.354l.163.163a5.826 5.826 0 0 0-.36.865h-.23a.96.96 0 0 0-.958.958V7.8c0 .528.43.959.958.959h.23c.096.297.217.586.36.866l-.164.163a.962.962 0 0 0 .002 1.355l1.181 1.176a.96.96 0 0 0 1.354 0l.164-.163c.279.143.57.264.871.36v.228c0 .528.43.958.958.958h1.667a.96.96 0 0 0 .96-.958v-.228c.3-.097.591-.217.87-.36l.142.143v5.608a6.426 6.426 0 0 0-.77.242l-1.586.611v-.351c0-.737-.6-1.336-1.338-1.336H.745a.46.46 0 0 0 0 .92h5.398c.227 0 .419.191.419.417v3.99a.46.46 0 0 0 .92 0v-2.654l1.917-.739c2.884-1.112 5.92.553 7.091 1.321l1.562 1.024c1.462.957 1.794 2.888 1.388 3.851a1.182 1.182 0 0 1-1.021.752c-.373.024-.745-.097-1.077-.257a3.746 3.746 0 0 1-.396-.222l-4.264-2.77a.46.46 0 0 0-.501.771l4.264 2.77c.921.597 2.2.934 3.152.212.251-.19.455-.437.601-.715l8.34-3.255c1.202-.469 1.887-.032 2.107.484.268.627-.03 1.527-1.117 2.032l-10.146 4.721c-2.536 1.179-3.703 1.262-6.546-.46l-.067-.041c-2.623-1.591-3.239-1.964-5.287-2.007v-2.701a.46.46 0 0 0-.92 0v3.965a.424.424 0 0 1-.419.417H.745a.46.46 0 0 0 0 .92h5.398c.738 0 1.338-.599 1.338-1.336v-.346c1.772.032 2.218.302 4.81 1.874l.068.041c1.678 1.016 2.877 1.462 4.051 1.462 1.036 0 2.051-.347 3.359-.955l10.146-4.721c1.617-.752 2.016-2.192 1.574-3.226zM18.402 7.426h2.772v4.347h-2.772V7.426zm-7.894 4.239-.406-.407a.458.458 0 0 0-.56-.07 4.91 4.91 0 0 1-1.289.534.46.46 0 0 0-.346.445v.573c0 .021-.019.039-.041.039H6.199a.041.041 0 0 1-.039-.039v-.573a.459.459 0 0 0-.346-.445 4.862 4.862 0 0 1-1.289-.534.463.463 0 0 0-.56.069l-.408.407a.04.04 0 0 1-.056 0L2.322 10.49c-.015-.015-.015-.043-.002-.055l.408-.405a.46.46 0 0 0 .071-.561 4.898 4.898 0 0 1-.535-1.286.46.46 0 0 0-.445-.345h-.575a.04.04 0 0 1-.039-.039V6.136c0-.02.019-.039.039-.039h.575a.46.46 0 0 0 .445-.345 4.96 4.96 0 0 1 .535-1.285.46.46 0 0 0-.071-.56l-.407-.406c-.014-.014-.015-.041-.001-.054L3.5 2.27a.044.044 0 0 1 .058-.001l.408.407a.458.458 0 0 0 .558.07c.405-.239.84-.419 1.29-.534a.459.459 0 0 0 .346-.445v-.573a.04.04 0 0 1 .039-.038h1.667c.022 0 .041.017.041.038v.573c0 .21.142.393.346.445a4.94 4.94 0 0 1 1.29.534.458.458 0 0 0 .559-.071l.404-.405c.016-.015.045-.015.059-.002l1.181 1.18c.006.006.009.014.009.024s-.004.02-.011.027l-.408.407a.46.46 0 0 0-.07.561c.238.398.418.83.535 1.284a.46.46 0 0 0 .445.345h.575c.021 0 .041.019.041.039v1.663c0 .021-.019.039-.041.039h-.575a.46.46 0 0 0-.445.345 4.84 4.84 0 0 1-.535 1.285.46.46 0 0 0 .071.562l.407.405c.007.007.011.016.011.027s-.004.02-.011.027l-1.179 1.176a.043.043 0 0 1-.057.001z"/>
      <path d="M26.467 17.809h-2.746a.46.46 0 0 0 0 .92h2.746a.46.46 0 0 0 0-.92zM26.467 19.664h-2.746a.46.46 0 0 0 0 .92h2.746a.46.46 0 0 0 0-.92z"/>
    </symbol>
    <symbol id="icon-vendor" viewBox="0 0 32 32">
      <path d="M14.375 5.222h.652V7.29h-.652V5.222zM15.723 4.31h.652v2.979h-.652V4.31zM17.072 3.29h.652v3.999h-.652V3.29zM12.076 6.229l-.242-.605a11.396 11.396 0 0 0-6.328 6.35l.606.24a10.744 10.744 0 0 1 5.965-5.986zM26.584 20.353l-.605-.242a10.647 10.647 0 0 1-2.886 4.08l-.108-.592-3.538-1.274-1.668-1.756v-.518a4.15 4.15 0 0 0 2.446-3.112 1.273 1.273 0 0 0 .337-2.36c.58-1.135.7-2.123.355-2.946-.449-1.069-1.539-1.499-1.957-1.629-.884-1.831-3.968-1.509-4.102-1.494l-.022.003c-1.553.284-2.621.967-3.174 2.031-.731 1.406-.357 3.091-.068 3.973a1.272 1.272 0 0 0 .283 2.434 4.147 4.147 0 0 0 2.444 3.097v.518l-1.668 1.757-3.538 1.275-.108.592a10.651 10.651 0 0 1-2.895-4.1l-.605.24a11.303 11.303 0 0 0 3.365 4.599l-.027.148-1.21 6.608 16.829-.001-1.235-6.756a11.32 11.32 0 0 0 3.356-4.577zm-14.769-4.092a.62.62 0 0 1 0-1.13v1.13zm6.265 5.571.749.789-.043.158-.669 2.466-1.654-1.396.061-.111 1.239-2.239.316.333zm.702 3.454-.03 1.209-.017.676-.023.934-1.049.825-.335-1.51-.122-.552.019-.093.252-1.218 1.002.846.302-1.117zm-2.688-.896.816.688-.303 1.466h-1.116l-.302-1.466.816-.689h.09zm-.585-2.112-.538-.972v-1.037c.315.077.645.118.983.118h.188c.339 0 .668-.041.984-.118v1.037l-.177.32-.36.652-.54.975-.54-.975zm5.066-6.581a.618.618 0 0 1-.293.526v-1.052a.62.62 0 0 1 .293.526zm-8.455-1.695c-.154-.558-.292-1.324-.201-2.082.044-.369.143-.736.32-1.077.454-.872 1.362-1.44 2.699-1.687.188-.018 2.898-.253 3.48 1.238l.063.16.168.038c.012.003 1.251.298 1.666 1.295.198.474.186 1.04-.034 1.69a5.065 5.065 0 0 1-.264.63 10.396 10.396 0 0 0-.388-.864 5.686 5.686 0 0 0-.463-.773c-.229-.314-.481-.559-.747-.652l-.01-.004-.242-.08-.053.084-.083.131a2.368 2.368 0 0 1-.498.521 2.13 2.13 0 0 1-1.506.465c-.101-.01-2.402-.224-3.562.631a1.728 1.728 0 0 0-.347.334zm.405 2.879a3.485 3.485 0 0 1-.058-.634v-1.486a.852.852 0 0 1 .089-.238.962.962 0 0 1 .201-.251c.734-.666 2.566-.65 3.214-.587 1.258.102 2.071-.629 2.419-1.033.347.315.762 1.143 1.055 1.881.07.177.133.347.186.505v1.208a3.496 3.496 0 0 1-3.488 3.489h-.188a3.471 3.471 0 0 1-1.635-.409 3.495 3.495 0 0 1-1.794-2.446zm1.492 4.951.316-.333.101.182.33.596.87 1.571-1.655 1.396-.711-2.625.749-.788zm.875 5.037-.122.552-.334 1.51-1.049-.825-.023-.934-.017-.676-.03-1.209.302 1.117 1.002-.846.252 1.219.019.093zm-.254 4.165H8.416l1.036-5.659.13-.714.106-.577 2.92-1.052.082 3.27.017.69.037 1.437v.001l.001.037 3.245 2.567h-1.351zm.366-1.656.422-1.903a11.748 11.748 0 0 0 1.246 0l.422 1.903-1.045.821-1.045-.821zm8.677 1.656h-7.573l3.246-2.567.001-.038v-.001l.036-1.437.018-.689.081-3.269.027.01 2.893 1.042.106.577.13.714 1.035 5.659zM25.971 12.176l.605-.243a11.4 11.4 0 0 0-6.312-6.309l-.242.605a10.743 10.743 0 0 1 5.949 5.947z"/>
      <path d="M19.191 29.169h2.626v.652h-2.626v-.652zM15.758 2.717h1.011l1.545-1.36.007.687.652-.006-.017-1.723-1.713.008.003.652.52-.003-1.242 1.094h-1.036l-.99.99h-1.197v.652h1.467l.99-.99zM8.568 16.077c0-1.947-1.584-3.531-3.531-3.531s-3.532 1.584-3.532 3.531 1.584 3.531 3.532 3.531 3.531-1.584 3.531-3.531zm-3.532 2.88c-1.588 0-2.88-1.292-2.88-2.88s1.292-2.88 2.88-2.88c1.588 0 2.88 1.292 2.88 2.88s-1.291 2.88-2.88 2.88z"/>
      <path d="M5.128 15.841c-.458-.134-.467-.235-.476-.341-.019-.213.112-.401.304-.439l.03-.005a.332.332 0 0 1 .258.082c.079.07.123.17.123.275v.025l.652.002v-.025a1.017 1.017 0 0 0-.342-.764.977.977 0 0 0-.314-.187v-.551h-.652v.54a1.052 1.052 0 0 0-.708 1.104c.051.57.483.773.942.908.472.139.476.281.479.385a.377.377 0 0 1-.335.399.326.326 0 0 1-.259-.082.367.367 0 0 1-.124-.275h-.652a1.02 1.02 0 0 0 .656.95v.55h.652v-.539c.433-.136.726-.553.713-1.021-.02-.721-.693-.919-.947-.993zM27.026 12.546c-1.947 0-3.532 1.584-3.532 3.531s1.584 3.531 3.532 3.531c1.946 0 3.531-1.584 3.531-3.531s-1.584-3.531-3.531-3.531zm0 6.411c-1.588 0-2.88-1.292-2.88-2.88s1.292-2.88 2.88-2.88c1.587 0 2.879 1.292 2.879 2.88s-1.292 2.88-2.879 2.88z"/>
      <path d="m26.726 16.075-1.389.937.363.538 1.676-1.13-.001-.002h.001v-2.566h-.649v2.222z"/>
    </symbol>
    <symbol id="icon-crm" viewBox="0 0 32 32">
      <path d="M8.335 15.304a.503.503 0 1 1-1.005-.047.503.503 0 0 1 1.005.047zm20.758 7.773a1.22 1.22 0 0 1-.679.65l-1.508.585a1.228 1.228 0 0 1-1.59-.702l-.107-.276-1.117.466a1.642 1.642 0 0 1-1.167 1.802c.116.404.079.851-.137 1.245a1.653 1.653 0 0 1-1.586.849 1.642 1.642 0 0 1-1.193 1.605 1.643 1.643 0 0 1-.723.044 1.62 1.62 0 0 1-.203.757 1.67 1.67 0 0 1-1.452.859 1.59 1.59 0 0 1-.796-.213l-.364-.209a1.703 1.703 0 0 1-1.341.659 1.68 1.68 0 0 1-1.542-1.017 1.686 1.686 0 0 1-1.393-.087 1.688 1.688 0 0 1-.701-.712 1.68 1.68 0 0 1-2.416-1.69 1.674 1.674 0 0 1-1.569-1.195 1.673 1.673 0 0 1 .125-1.282l.391-.732a3.48 3.48 0 0 1-.17-.666c-.071-.384-.13-.64-.282-.699a22.88 22.88 0 0 1-.82-.356l-.136.308a1.23 1.23 0 0 1-1.621.627l-1.479-.654c-.299-.132-.53-.374-.648-.681s-.111-.64.021-.94l3.396-7.684c.132-.299.374-.53.681-.648s.64-.111.94.021l1.479.654a1.23 1.23 0 0 1 .627 1.621l-.228.517.904.417.035.018c.507.285 1.048.158 1.733-.003.917-.215 2.044-.479 3.362.281 1.822-1.109 3.221-.539 4.255-.116.747.305 1.192.467 1.626.241l.787-.421-.21-.541a1.23 1.23 0 0 1 .701-1.59l1.508-.585c.305-.118.639-.11.94.022s.532.374.65.679l3.037 7.833c.119.305.111.639-.022.94zm-23.371-.405 3.396-7.684a.251.251 0 0 0-.126-.328l-1.479-.654a.248.248 0 0 0-.19-.004.251.251 0 0 0-.138.13l-3.396 7.684a.251.251 0 0 0 .126.328l1.479.654a.252.252 0 0 0 .328-.127zm3.822 3.897.96-1.661a.704.704 0 0 0-1.267-.609l-.736 1.377a.703.703 0 0 0 1.043.894zm1.834 1.628 1.066-2.064a.713.713 0 0 0-.359-.75.708.708 0 0 0-.76.062l-1.191 2.092a.703.703 0 1 0 1.243.659zm2.168.841.942-1.811a.713.713 0 0 0-.359-.749.716.716 0 0 0-.819.112l-1.023 1.98a.705.705 0 0 0 .37.657.706.706 0 0 0 .888-.19zm2.211.806.706-1.32a.71.71 0 0 0-.288-.953.714.714 0 0 0-.819.113l-.92 1.768a.714.714 0 0 0 .368.681c.342.183.77.053.953-.289zm2.204-1.129-.456-.266a1.661 1.661 0 0 1-.177.538l-.373.697.37.213c.147.084.32.104.489.057a.68.68 0 0 0 .412-.326.677.677 0 0 0-.266-.913zm-1.049-3.265a.49.49 0 0 1 .481-.855l3.629 2.042a.67.67 0 0 0 .909-.264.678.678 0 0 0-.268-.912c-.851-.477-1.815-1.016-2.763-1.56a.49.49 0 0 1 .487-.851c.945.541 1.907 1.08 2.756 1.555a.669.669 0 0 0 .906-.266.659.659 0 0 0 .012-.612.686.686 0 0 0-.283-.301l-4.011-2.286c-.653-.372-1.49-.033-2.459.359-1.477.598-3.315 1.342-4.896-.693-.113-.145-.156-.324-.121-.504s.141-.331.3-.424c1.126-.657 2.077-1.374 2.826-2.131.17-.172.341-.331.513-.479-.808-.318-1.511-.154-2.247.019-.78.183-1.587.372-2.42-.088l-.872-.402-2.239 5.066c.521.232.713.314.778.339.55.214.735.705.834 1.148a1.687 1.687 0 0 1 1.888-.205c.471.252.776.7.864 1.193.346-.05.708.008 1.031.181.392.209.673.555.805.955a1.684 1.684 0 0 1 2.045 1.094 1.684 1.684 0 0 1 1.739.546l2.1 1.189a.654.654 0 0 0 .504.055.667.667 0 0 0 .403-.32.677.677 0 0 0-.268-.911zm7.943-3.03-2.008-5.181-.687.367c-.864.449-1.672.119-2.454-.201-1.023-.418-2.081-.851-3.601.192-.327.223-.66.506-.991.84-.726.734-1.622 1.429-2.665 2.071 1.053 1.071 2.191.611 3.492.084 1.105-.447 2.247-.91 3.313-.302l4.011 2.286c.157.09.297.202.416.334l1.176-.491zm3.347.071-3.037-7.833a.25.25 0 0 0-.322-.142l-1.508.585a.253.253 0 0 0-.142.322l3.037 7.833c.049.125.196.19.321.142l1.508-.585a.25.25 0 0 0 .142-.322zm-3.738-7.219a.503.503 0 1 0 0 1.005.503.503 0 0 0 0-1.005zm.623-3.181a.49.49 0 0 1-.488.543h-4.691c.009.058.017.116.023.175a.49.49 0 0 1-.488.542h-6.902a.492.492 0 0 1-.488-.542c.006-.059.014-.117.023-.175H7.385a.49.49 0 0 1-.488-.543 3.405 3.405 0 0 1 1.934-2.722 1.959 1.959 0 0 1-.506-1.317c0-1.086.884-1.97 1.97-1.97s1.97.884 1.97 1.97c0 .508-.193.971-.51 1.321.539.256 1.007.65 1.35 1.144.366-.389.81-.703 1.306-.918a2.236 2.236 0 0 1-.664-1.592c0-1.238 1.007-2.245 2.245-2.245s2.245 1.007 2.245 2.245c0 .622-.254 1.185-.664 1.592.496.215.94.528 1.306.918a3.45 3.45 0 0 1 1.35-1.144 1.961 1.961 0 0 1-.51-1.321c0-1.086.884-1.97 1.97-1.97s1.97.884 1.97 1.97c0 .506-.192.968-.507 1.317a3.407 3.407 0 0 1 1.934 2.722zm-3.397-3.05a.99.99 0 0 0 0-1.978.99.99 0 0 0 0 1.978zm-5.697.231a1.266 1.266 0 1 0-.002-2.528 1.266 1.266 0 0 0 .002 2.528zm-5.698-.231a.99.99 0 0 0 0-1.978.99.99 0 0 0 0 1.978zm2.064 2.612c.039-.09.08-.178.125-.264a2.45 2.45 0 0 0-2.189-1.367 2.432 2.432 0 0 0-2.301 1.631h4.364zm6.488.717c-.371-1.238-1.516-2.117-2.855-2.117s-2.483.879-2.855 2.117h5.709zm5.144-.717a2.432 2.432 0 0 0-2.301-1.631 2.45 2.45 0 0 0-2.189 1.367c.045.086.087.174.125.264h4.364zm3.941 2.07a.49.49 0 1 0 .98 0c0-2.285-.605-4.53-1.749-6.494a.49.49 0 1 0-.847.493 11.93 11.93 0 0 1 1.616 6.001zm-24.369.491a.49.49 0 0 0 .49-.49c0-2.62.849-5.045 2.285-7.016l.035.98a.49.49 0 0 0 .49.473h.018a.49.49 0 0 0 .472-.507l-.075-2.081a11.907 11.907 0 0 1 8.714-3.787c2.527 0 4.992.807 7.024 2.285l-.988.035a.49.49 0 0 0 .018.98h.018l2.292-.082a.49.49 0 0 0 .454-.625l-.629-2.205a.49.49 0 0 0-.943.269l.208.73A12.935 12.935 0 0 0 15.993.805a12.885 12.885 0 0 0-9.466 4.137l-2.085.595a.49.49 0 0 0 .269.943l.736-.21a12.85 12.85 0 0 0-2.373 7.455c0 .271.219.49.49.49z"/>
    </symbol>
    <symbol id="icon-cancel-circle" viewBox="0 0 32 32">
      <path d="M16 0C7.163 0 0 7.163 0 16s7.163 16 16 16 16-7.163 16-16S24.837 0 16 0zm0 29C8.82 29 3 23.18 3 16S8.82 3 16 3s13 5.82 13 13-5.82 13-13 13z"/>
      <path d="m21 8-5 5-5-5-3 3 5 5-5 5 3 3 5-5 5 5 3-3-5-5 5-5z"/>
    </symbol>
    <symbol id="icon-linkedin" viewBox="0 0 32 32">
      <path d="M29 0H3C1.35 0 0 1.35 0 3v26c0 1.65 1.35 3 3 3h26c1.65 0 3-1.35 3-3V3c0-1.65-1.35-3-3-3zM12 26H8V12h4v14zm-2-16c-1.106 0-2-.894-2-2s.894-2 2-2c1.106 0 2 .894 2 2s-.894 2-2 2zm16 16h-4v-8c0-1.106-.894-2-2-2s-2 .894-2 2v8h-4V12h4v2.481C18.825 13.35 20.087 12 21.5 12c2.488 0 4.5 2.238 4.5 5v9z"/>
    </symbol>
  </defs>
</svg>